<mxfile host="app.diagrams.net" agent="Mozilla/5.0 (X11; Linux x86_64) AppleWebKit/537.36 (KHTML, like Gecko) Chrome/132.0.0.0 Safari/537.36" version="26.0.11">
  <diagram name="Page-1" id="ynTKS2v_TZv17swCPKiS">
    <mxGraphModel dx="1980" dy="2358" grid="1" gridSize="10" guides="1" tooltips="1" connect="1" arrows="1" fold="1" page="1" pageScale="1" pageWidth="827" pageHeight="1169" math="0" shadow="0">
      <root>
        <mxCell id="0" />
        <mxCell id="1" parent="0" />
        <mxCell id="ltitkqDnKHNBnyyiyaz9-99" value="" style="rounded=1;whiteSpace=wrap;html=1;fillColor=#EEEEEE;strokeColor=none;opacity=50;" parent="1" vertex="1">
          <mxGeometry x="169.5" y="63.26" width="400" height="190" as="geometry" />
        </mxCell>
        <mxCell id="ltitkqDnKHNBnyyiyaz9-87" value="" style="rounded=1;whiteSpace=wrap;html=1;strokeColor=none;fillColor=#EEEEEE;fontStyle=1;opacity=50;" parent="1" vertex="1">
          <mxGeometry x="-530" y="140" width="660" height="340" as="geometry" />
        </mxCell>
        <mxCell id="ltitkqDnKHNBnyyiyaz9-67" value="" style="rounded=1;whiteSpace=wrap;html=1;strokeColor=none;fillColor=#EEEEEE;fontStyle=1;opacity=50;" parent="1" vertex="1">
          <mxGeometry x="-530" y="-244.38" width="860" height="274.38" as="geometry" />
        </mxCell>
        <mxCell id="ltitkqDnKHNBnyyiyaz9-64" style="edgeStyle=orthogonalEdgeStyle;rounded=1;orthogonalLoop=1;jettySize=auto;html=1;exitX=1;exitY=0.5;exitDx=0;exitDy=0;entryX=1;entryY=0.5;entryDx=0;entryDy=0;" parent="1" source="ltitkqDnKHNBnyyiyaz9-3" target="ltitkqDnKHNBnyyiyaz9-30" edge="1">
          <mxGeometry relative="1" as="geometry" />
        </mxCell>
        <mxCell id="ltitkqDnKHNBnyyiyaz9-3" value="&lt;font style=&quot;font-size: 18px;&quot;&gt;Exponential&lt;/font&gt;" style="rounded=1;whiteSpace=wrap;html=1;fillColor=#68A9D4;" parent="1" vertex="1">
          <mxGeometry x="-67.25" y="-210" width="120" height="40" as="geometry" />
        </mxCell>
        <mxCell id="ltitkqDnKHNBnyyiyaz9-10" value="&lt;span style=&quot;font-size: 14px;&quot;&gt;arrivals_generator()&lt;/span&gt;" style="rounded=1;whiteSpace=wrap;html=1;fillColor=#F2A25C;" parent="1" vertex="1">
          <mxGeometry x="-252.25" y="181.99" width="180" height="30" as="geometry" />
        </mxCell>
        <mxCell id="ltitkqDnKHNBnyyiyaz9-12" value="Creates patient ID and starts pathway process (service())" style="text;html=1;align=center;verticalAlign=middle;whiteSpace=wrap;rounded=1;" parent="1" vertex="1">
          <mxGeometry x="-252.25" y="211.99" width="180" height="40" as="geometry" />
        </mxCell>
        <mxCell id="n3SeUjZ5TN_y6Bz_ILMT-5" style="edgeStyle=orthogonalEdgeStyle;rounded=0;orthogonalLoop=1;jettySize=auto;html=1;exitX=1;exitY=0.5;exitDx=0;exitDy=0;" parent="1" source="ltitkqDnKHNBnyyiyaz9-13" target="n3SeUjZ5TN_y6Bz_ILMT-3" edge="1">
          <mxGeometry relative="1" as="geometry" />
        </mxCell>
        <mxCell id="ltitkqDnKHNBnyyiyaz9-13" value="&lt;span style=&quot;font-size: 14px;&quot;&gt;service()&lt;/span&gt;" style="rounded=1;whiteSpace=wrap;html=1;fillColor=#F2A25C;" parent="1" vertex="1">
          <mxGeometry x="-256.75" y="396.74" width="130" height="30" as="geometry" />
        </mxCell>
        <mxCell id="ltitkqDnKHNBnyyiyaz9-14" value="Samples and passes time to next patient arrival" style="text;html=1;align=center;verticalAlign=middle;whiteSpace=wrap;rounded=1;" parent="1" vertex="1">
          <mxGeometry x="-252.25" y="295.49" width="180" height="40" as="geometry" />
        </mxCell>
        <mxCell id="ltitkqDnKHNBnyyiyaz9-17" value="" style="curved=1;endArrow=classic;html=1;rounded=1;" parent="1" edge="1">
          <mxGeometry width="50" height="50" relative="1" as="geometry">
            <mxPoint x="-176.25" y="291.99" as="sourcePoint" />
            <mxPoint x="-166.25" y="251.99" as="targetPoint" />
            <Array as="points">
              <mxPoint x="-186.25" y="281.99" />
              <mxPoint x="-186.25" y="261.99" />
            </Array>
          </mxGeometry>
        </mxCell>
        <mxCell id="ltitkqDnKHNBnyyiyaz9-18" value="&lt;div&gt;&lt;br&gt;&lt;/div&gt;&lt;div&gt;&lt;br&gt;&lt;/div&gt;" style="shape=umlActor;verticalLabelPosition=bottom;verticalAlign=top;html=1;outlineConnect=0;rounded=1;" parent="1" vertex="1">
          <mxGeometry x="-287.75" y="205.74" width="30" height="60" as="geometry" />
        </mxCell>
        <mxCell id="ltitkqDnKHNBnyyiyaz9-22" value="&lt;div&gt;Wait for and capture call operator&lt;/div&gt;&lt;div&gt;Some get nurse callback...&lt;/div&gt;" style="text;html=1;align=center;verticalAlign=middle;whiteSpace=wrap;rounded=1;" parent="1" vertex="1">
          <mxGeometry x="-284.25" y="426.74" width="185" height="40" as="geometry" />
        </mxCell>
        <mxCell id="YddtfjUMXEQ7EH6GwOLm-19" style="edgeStyle=orthogonalEdgeStyle;shape=connector;rounded=1;orthogonalLoop=1;jettySize=auto;html=1;entryX=0.5;entryY=0;entryDx=0;entryDy=0;strokeColor=default;align=center;verticalAlign=middle;fontFamily=Helvetica;fontSize=11;fontColor=default;labelBackgroundColor=default;endArrow=classic;" parent="1" target="ltitkqDnKHNBnyyiyaz9-13" edge="1">
          <mxGeometry relative="1" as="geometry">
            <Array as="points">
              <mxPoint x="-276.25" y="366.74" />
              <mxPoint x="-191.25" y="366.74" />
            </Array>
            <mxPoint x="-276.25" y="276.74" as="sourcePoint" />
          </mxGeometry>
        </mxCell>
        <mxCell id="ltitkqDnKHNBnyyiyaz9-30" value="&lt;font style=&quot;font-size: 14px;&quot;&gt;arrival_dist&lt;/font&gt;" style="rounded=1;whiteSpace=wrap;html=1;fillColor=#A9E4F5;" parent="1" vertex="1">
          <mxGeometry x="-37.25" y="-154" width="115" height="30" as="geometry" />
        </mxCell>
        <mxCell id="ltitkqDnKHNBnyyiyaz9-41" value="Key:" style="text;html=1;align=center;verticalAlign=middle;whiteSpace=wrap;rounded=1;fontStyle=1;" parent="1" vertex="1">
          <mxGeometry x="475" y="-210" width="45" height="25" as="geometry" />
        </mxCell>
        <mxCell id="ltitkqDnKHNBnyyiyaz9-42" value="Results" style="rounded=1;whiteSpace=wrap;html=1;fillColor=#D3F1E2;" parent="1" vertex="1">
          <mxGeometry x="430" y="-59" width="135" height="30" as="geometry" />
        </mxCell>
        <mxCell id="ltitkqDnKHNBnyyiyaz9-43" value="Functions or methods" style="rounded=1;whiteSpace=wrap;html=1;fillColor=#F2A25C;" parent="1" vertex="1">
          <mxGeometry x="430" y="-97" width="135" height="30" as="geometry" />
        </mxCell>
        <mxCell id="ltitkqDnKHNBnyyiyaz9-44" value="Instance of class" style="rounded=1;whiteSpace=wrap;html=1;fillColor=#A9E4F5;" parent="1" vertex="1">
          <mxGeometry x="430" y="-136" width="135" height="30" as="geometry" />
        </mxCell>
        <mxCell id="ltitkqDnKHNBnyyiyaz9-45" value="Class" style="rounded=1;whiteSpace=wrap;html=1;fillColor=#68A9D4;" parent="1" vertex="1">
          <mxGeometry x="430" y="-174.5" width="135" height="30" as="geometry" />
        </mxCell>
        <mxCell id="ltitkqDnKHNBnyyiyaz9-72" value="" style="curved=1;endArrow=classic;html=1;rounded=1;" parent="1" edge="1">
          <mxGeometry width="50" height="50" relative="1" as="geometry">
            <mxPoint x="-151.25" y="255.49" as="sourcePoint" />
            <mxPoint x="-161.25" y="295.49" as="targetPoint" />
            <Array as="points">
              <mxPoint x="-141.25" y="265.49" />
              <mxPoint x="-141.25" y="285.49" />
            </Array>
          </mxGeometry>
        </mxCell>
        <mxCell id="ltitkqDnKHNBnyyiyaz9-100" value="&lt;span style=&quot;font-size: 18px;&quot;&gt;Set-up simulation and run model&lt;/span&gt;" style="text;html=1;align=center;verticalAlign=middle;whiteSpace=wrap;rounded=1;fontStyle=1;" parent="1" vertex="1">
          <mxGeometry x="240" y="80.15" width="300" height="31" as="geometry" />
        </mxCell>
        <mxCell id="YddtfjUMXEQ7EH6GwOLm-66" style="edgeStyle=orthogonalEdgeStyle;shape=connector;rounded=1;orthogonalLoop=1;jettySize=auto;html=1;exitX=1;exitY=0.5;exitDx=0;exitDy=0;entryX=0;entryY=0.5;entryDx=0;entryDy=0;strokeColor=default;align=center;verticalAlign=middle;fontFamily=Helvetica;fontSize=11;fontColor=default;labelBackgroundColor=default;endArrow=classic;" parent="1" source="vqxNZKrtE7Uk3ozEDKWz-3" target="YddtfjUMXEQ7EH6GwOLm-5" edge="1">
          <mxGeometry relative="1" as="geometry" />
        </mxCell>
        <mxCell id="YddtfjUMXEQ7EH6GwOLm-67" style="edgeStyle=orthogonalEdgeStyle;shape=connector;rounded=1;orthogonalLoop=1;jettySize=auto;html=1;exitX=1;exitY=0.5;exitDx=0;exitDy=0;strokeColor=default;align=center;verticalAlign=middle;fontFamily=Helvetica;fontSize=11;fontColor=default;labelBackgroundColor=default;endArrow=classic;" parent="1" source="vqxNZKrtE7Uk3ozEDKWz-3" target="YddtfjUMXEQ7EH6GwOLm-7" edge="1">
          <mxGeometry relative="1" as="geometry" />
        </mxCell>
        <mxCell id="YddtfjUMXEQ7EH6GwOLm-68" style="edgeStyle=orthogonalEdgeStyle;shape=connector;rounded=1;orthogonalLoop=1;jettySize=auto;html=1;exitX=1;exitY=0.5;exitDx=0;exitDy=0;entryX=0;entryY=0.5;entryDx=0;entryDy=0;strokeColor=default;align=center;verticalAlign=middle;fontFamily=Helvetica;fontSize=11;fontColor=default;labelBackgroundColor=default;endArrow=classic;" parent="1" source="vqxNZKrtE7Uk3ozEDKWz-3" target="YddtfjUMXEQ7EH6GwOLm-6" edge="1">
          <mxGeometry relative="1" as="geometry" />
        </mxCell>
        <mxCell id="YddtfjUMXEQ7EH6GwOLm-75" style="edgeStyle=orthogonalEdgeStyle;shape=connector;rounded=1;orthogonalLoop=1;jettySize=auto;html=1;exitX=0.5;exitY=1;exitDx=0;exitDy=0;entryX=0.5;entryY=0;entryDx=0;entryDy=0;strokeColor=default;align=center;verticalAlign=middle;fontFamily=Helvetica;fontSize=11;fontColor=default;labelBackgroundColor=default;endArrow=classic;" parent="1" source="vqxNZKrtE7Uk3ozEDKWz-3" target="YddtfjUMXEQ7EH6GwOLm-74" edge="1">
          <mxGeometry relative="1" as="geometry" />
        </mxCell>
        <mxCell id="vqxNZKrtE7Uk3ozEDKWz-3" value="&lt;font style=&quot;font-size: 18px;&quot;&gt;Experiment&lt;/font&gt;" style="rounded=1;whiteSpace=wrap;html=1;fillColor=#68A9D4;" parent="1" vertex="1">
          <mxGeometry x="-464.5" y="-99.5" width="113" height="40" as="geometry" />
        </mxCell>
        <mxCell id="vqxNZKrtE7Uk3ozEDKWz-11" value="Prints updates&amp;nbsp;&lt;span style=&quot;background-color: transparent; color: light-dark(rgb(0, 0, 0), rgb(255, 255, 255));&quot;&gt;(e.g. &quot;patient 1 triaged to trauma 13.174&quot;) to console&lt;/span&gt;" style="text;html=1;align=center;verticalAlign=middle;whiteSpace=wrap;rounded=1;" parent="1" vertex="1">
          <mxGeometry x="-530" y="310.49" width="205.5" height="40" as="geometry" />
        </mxCell>
        <mxCell id="vqxNZKrtE7Uk3ozEDKWz-13" value="&lt;font style=&quot;font-size: 18px;&quot;&gt;Set-up&lt;/font&gt;" style="text;html=1;align=center;verticalAlign=middle;whiteSpace=wrap;rounded=1;fontStyle=1;" parent="1" vertex="1">
          <mxGeometry x="-500" y="-222.87" width="90" height="31" as="geometry" />
        </mxCell>
        <mxCell id="vqxNZKrtE7Uk3ozEDKWz-14" value="&lt;font style=&quot;font-size: 18px;&quot;&gt;Simulation components&lt;/font&gt;" style="text;html=1;align=center;verticalAlign=middle;whiteSpace=wrap;rounded=1;fontStyle=1;" parent="1" vertex="1">
          <mxGeometry x="-492.5" y="160" width="110" height="31" as="geometry" />
        </mxCell>
        <mxCell id="YddtfjUMXEQ7EH6GwOLm-4" style="edgeStyle=orthogonalEdgeStyle;shape=connector;rounded=1;orthogonalLoop=1;jettySize=auto;html=1;exitX=0.5;exitY=1;exitDx=0;exitDy=0;strokeColor=default;align=center;verticalAlign=middle;fontFamily=Helvetica;fontSize=11;fontColor=default;labelBackgroundColor=default;endArrow=classic;" parent="1" source="YddtfjUMXEQ7EH6GwOLm-1" target="vqxNZKrtE7Uk3ozEDKWz-3" edge="1">
          <mxGeometry relative="1" as="geometry" />
        </mxCell>
        <mxCell id="YddtfjUMXEQ7EH6GwOLm-1" value="Default parameters defined as globals in script" style="text;html=1;align=center;verticalAlign=middle;whiteSpace=wrap;rounded=1;" parent="1" vertex="1">
          <mxGeometry x="-508" y="-174.5" width="200" height="40" as="geometry" />
        </mxCell>
        <mxCell id="YddtfjUMXEQ7EH6GwOLm-2" value="&lt;font style=&quot;font-size: 14px;&quot;&gt;trace()&lt;/font&gt;" style="rounded=1;whiteSpace=wrap;html=1;fillColor=#F2A25C;" parent="1" vertex="1">
          <mxGeometry x="-482.5" y="280.49" width="90" height="30" as="geometry" />
        </mxCell>
        <mxCell id="YddtfjUMXEQ7EH6GwOLm-5" value="&lt;span style=&quot;font-size: 14px;&quot;&gt;set_random_no_set()&lt;/span&gt;" style="rounded=1;whiteSpace=wrap;html=1;fillColor=#F2A25C;" parent="1" vertex="1">
          <mxGeometry x="-258" y="-134.5" width="145" height="30" as="geometry" />
        </mxCell>
        <mxCell id="YddtfjUMXEQ7EH6GwOLm-6" value="&lt;span style=&quot;font-size: 14px;&quot;&gt;init_results_variables()&lt;/span&gt;" style="rounded=1;whiteSpace=wrap;html=1;fillColor=#F2A25C;" parent="1" vertex="1">
          <mxGeometry x="-260.5" y="-54" width="150" height="30" as="geometry" />
        </mxCell>
        <mxCell id="YddtfjUMXEQ7EH6GwOLm-7" value="&lt;span style=&quot;font-size: 14px;&quot;&gt;init_sampling()&lt;/span&gt;" style="rounded=1;whiteSpace=wrap;html=1;fillColor=#F2A25C;" parent="1" vertex="1">
          <mxGeometry x="-260.5" y="-94" width="150" height="30" as="geometry" />
        </mxCell>
        <mxCell id="FA5nj77lR5-p3gIB6bej-9" style="edgeStyle=orthogonalEdgeStyle;rounded=1;orthogonalLoop=1;jettySize=auto;html=1;exitX=0;exitY=0.5;exitDx=0;exitDy=0;entryX=0.5;entryY=0;entryDx=0;entryDy=0;" edge="1" parent="1" source="YddtfjUMXEQ7EH6GwOLm-30" target="n3SeUjZ5TN_y6Bz_ILMT-6">
          <mxGeometry relative="1" as="geometry" />
        </mxCell>
        <mxCell id="FA5nj77lR5-p3gIB6bej-10" style="edgeStyle=orthogonalEdgeStyle;rounded=1;orthogonalLoop=1;jettySize=auto;html=1;exitX=0;exitY=0.5;exitDx=0;exitDy=0;entryX=0.5;entryY=0;entryDx=0;entryDy=0;" edge="1" parent="1" source="YddtfjUMXEQ7EH6GwOLm-30" target="ltitkqDnKHNBnyyiyaz9-10">
          <mxGeometry relative="1" as="geometry" />
        </mxCell>
        <mxCell id="YddtfjUMXEQ7EH6GwOLm-30" value="&lt;span style=&quot;font-size: 14px;&quot;&gt;single_run()&lt;/span&gt;" style="rounded=1;whiteSpace=wrap;html=1;fillColor=#F2A25C;" parent="1" vertex="1">
          <mxGeometry x="198.5" y="130.15" width="166" height="30" as="geometry" />
        </mxCell>
        <mxCell id="YddtfjUMXEQ7EH6GwOLm-31" value="&lt;span style=&quot;font-size: 14px;&quot;&gt;multiple_replications()&lt;/span&gt;" style="rounded=1;whiteSpace=wrap;html=1;fillColor=#F2A25C;" parent="1" vertex="1">
          <mxGeometry x="389.5" y="130.15000000000003" width="166" height="30" as="geometry" />
        </mxCell>
        <mxCell id="YddtfjUMXEQ7EH6GwOLm-44" style="edgeStyle=orthogonalEdgeStyle;shape=connector;rounded=1;orthogonalLoop=1;jettySize=auto;html=1;exitX=1;exitY=0.5;exitDx=0;exitDy=0;entryX=1;entryY=0.5;entryDx=0;entryDy=0;strokeColor=default;align=center;verticalAlign=middle;fontFamily=Helvetica;fontSize=11;fontColor=default;labelBackgroundColor=default;endArrow=classic;" parent="1" source="YddtfjUMXEQ7EH6GwOLm-42" target="YddtfjUMXEQ7EH6GwOLm-43" edge="1">
          <mxGeometry relative="1" as="geometry" />
        </mxCell>
        <mxCell id="YddtfjUMXEQ7EH6GwOLm-42" value="&lt;font style=&quot;font-size: 18px;&quot;&gt;Uniform&lt;/font&gt;" style="rounded=1;whiteSpace=wrap;html=1;fillColor=#68A9D4;" parent="1" vertex="1">
          <mxGeometry x="124" y="-210" width="120" height="40" as="geometry" />
        </mxCell>
        <mxCell id="YddtfjUMXEQ7EH6GwOLm-43" value="&lt;font style=&quot;font-size: 14px;&quot;&gt;nurse_dist&lt;/font&gt;" style="rounded=1;whiteSpace=wrap;html=1;fillColor=#A9E4F5;" parent="1" vertex="1">
          <mxGeometry x="155" y="-154" width="115" height="30" as="geometry" />
        </mxCell>
        <mxCell id="YddtfjUMXEQ7EH6GwOLm-50" style="edgeStyle=orthogonalEdgeStyle;rounded=1;orthogonalLoop=1;jettySize=auto;html=1;exitX=1;exitY=0.5;exitDx=0;exitDy=0;entryX=1;entryY=0.5;entryDx=0;entryDy=0;" parent="1" source="YddtfjUMXEQ7EH6GwOLm-52" target="YddtfjUMXEQ7EH6GwOLm-53" edge="1">
          <mxGeometry relative="1" as="geometry" />
        </mxCell>
        <mxCell id="YddtfjUMXEQ7EH6GwOLm-52" value="&lt;font style=&quot;font-size: 18px;&quot;&gt;Bernoulli&lt;/font&gt;" style="rounded=1;whiteSpace=wrap;html=1;fillColor=#68A9D4;" parent="1" vertex="1">
          <mxGeometry x="124" y="-97.5" width="120" height="40" as="geometry" />
        </mxCell>
        <mxCell id="YddtfjUMXEQ7EH6GwOLm-53" value="&lt;font style=&quot;font-size: 14px;&quot;&gt;callback_dist&lt;/font&gt;" style="rounded=1;whiteSpace=wrap;html=1;fillColor=#A9E4F5;" parent="1" vertex="1">
          <mxGeometry x="155" y="-41.5" width="115" height="30" as="geometry" />
        </mxCell>
        <mxCell id="YddtfjUMXEQ7EH6GwOLm-58" style="edgeStyle=orthogonalEdgeStyle;rounded=1;orthogonalLoop=1;jettySize=auto;html=1;exitX=1;exitY=0.5;exitDx=0;exitDy=0;entryX=1;entryY=0.5;entryDx=0;entryDy=0;" parent="1" source="YddtfjUMXEQ7EH6GwOLm-61" target="YddtfjUMXEQ7EH6GwOLm-62" edge="1">
          <mxGeometry relative="1" as="geometry" />
        </mxCell>
        <mxCell id="YddtfjUMXEQ7EH6GwOLm-61" value="&lt;font style=&quot;font-size: 18px;&quot;&gt;Triangular&lt;/font&gt;" style="rounded=1;whiteSpace=wrap;html=1;fillColor=#68A9D4;" parent="1" vertex="1">
          <mxGeometry x="-70" y="-97.5" width="120" height="40" as="geometry" />
        </mxCell>
        <mxCell id="YddtfjUMXEQ7EH6GwOLm-62" value="&lt;font style=&quot;font-size: 14px;&quot;&gt;call_dist&lt;/font&gt;" style="rounded=1;whiteSpace=wrap;html=1;fillColor=#A9E4F5;" parent="1" vertex="1">
          <mxGeometry x="-39" y="-41.5" width="115" height="30" as="geometry" />
        </mxCell>
        <mxCell id="YddtfjUMXEQ7EH6GwOLm-74" value="&lt;font style=&quot;font-size: 14px;&quot;&gt;scenario&lt;/font&gt;" style="rounded=1;whiteSpace=wrap;html=1;fillColor=#A9E4F5;" parent="1" vertex="1">
          <mxGeometry x="-441" y="-29.5" width="66" height="30" as="geometry" />
        </mxCell>
        <mxCell id="YddtfjUMXEQ7EH6GwOLm-78" value="run results" style="rounded=1;whiteSpace=wrap;html=1;fillColor=#D3F1E2;" parent="1" vertex="1">
          <mxGeometry x="209" y="200.14999999999998" width="135" height="30" as="geometry" />
        </mxCell>
        <mxCell id="n3SeUjZ5TN_y6Bz_ILMT-3" value="&lt;span style=&quot;font-size: 14px;&quot;&gt;nurse_consultation()&lt;/span&gt;" style="rounded=1;whiteSpace=wrap;html=1;fillColor=#F2A25C;" parent="1" vertex="1">
          <mxGeometry x="-79.25" y="396.74" width="153" height="30" as="geometry" />
        </mxCell>
        <mxCell id="n3SeUjZ5TN_y6Bz_ILMT-6" value="&lt;span style=&quot;font-size: 14px;&quot;&gt;warmup_complete()&lt;/span&gt;" style="rounded=1;whiteSpace=wrap;html=1;fillColor=#F2A25C;" parent="1" vertex="1">
          <mxGeometry x="-29.5" y="181.99" width="130.5" height="30" as="geometry" />
        </mxCell>
        <mxCell id="n3SeUjZ5TN_y6Bz_ILMT-7" value="Resets results at end of warm-up" style="text;html=1;align=center;verticalAlign=middle;whiteSpace=wrap;rounded=1;" parent="1" vertex="1">
          <mxGeometry x="-53.5" y="214.74" width="180" height="22" as="geometry" />
        </mxCell>
        <mxCell id="FA5nj77lR5-p3gIB6bej-7" value="Sets up and runs simulation&lt;div&gt;Calculates run results&lt;/div&gt;" style="text;html=1;align=center;verticalAlign=middle;whiteSpace=wrap;rounded=1;" vertex="1" parent="1">
          <mxGeometry x="186.5" y="167.26" width="180" height="22" as="geometry" />
        </mxCell>
        <mxCell id="FA5nj77lR5-p3gIB6bej-8" style="edgeStyle=orthogonalEdgeStyle;rounded=1;orthogonalLoop=1;jettySize=auto;html=1;exitX=0.5;exitY=1;exitDx=0;exitDy=0;entryX=0.16;entryY=0.128;entryDx=0;entryDy=0;entryPerimeter=0;" edge="1" parent="1" source="YddtfjUMXEQ7EH6GwOLm-74" target="YddtfjUMXEQ7EH6GwOLm-30">
          <mxGeometry relative="1" as="geometry" />
        </mxCell>
        <mxCell id="FA5nj77lR5-p3gIB6bej-11" value="" style="curved=1;endArrow=classic;html=1;rounded=1;dashed=1;entryX=0;entryY=1;entryDx=0;entryDy=0;" edge="1" parent="1" target="FA5nj77lR5-p3gIB6bej-7">
          <mxGeometry width="50" height="50" relative="1" as="geometry">
            <mxPoint x="73.75" y="335.49" as="sourcePoint" />
            <mxPoint x="123.75" y="285.49" as="targetPoint" />
            <Array as="points">
              <mxPoint x="123.75" y="335.49" />
              <mxPoint x="170" y="290" />
            </Array>
          </mxGeometry>
        </mxCell>
      </root>
    </mxGraphModel>
  </diagram>
</mxfile>
